<?xml version="1.0" encoding="UTF-8" standalone="no"?>
<!DOCTYPE svg PUBLIC "-//W3C//DTD SVG 1.1//EN" "http://www.w3.org/Graphics/SVG/1.1/DTD/svg11.dtd">
<svg width="100%" height="100%" viewBox="0 0 292 293" version="1.1" xmlns="http://www.w3.org/2000/svg" xmlns:xlink="http://www.w3.org/1999/xlink" xml:space="preserve" xmlns:serif="http://www.serif.com/" style="fill-rule:evenodd;clip-rule:evenodd;stroke-linejoin:round;stroke-miterlimit:2;">
    <path d="M4.22,4.1L74.44,58.62L188.21,146.62L252.82,196.62L286.53,224.08L141.86,255.44L77.25,268.84C59.917,206.42 42.583,143.993 25.25,81.56L10.41,28.45L4.22,4.1Z" style="fill:white;"/>
    <g id="g1">
        <path id="path8" d="M0,0.49C5.15,27.49 13.11,53.74 20.49,80.16L55.36,206L74.44,274.48C95.15,269.93 95.13,269.97 104.51,267.95C106.75,274.59 106.73,274.58 113.05,292.6C210.12,257 210.12,257 291.33,227.35C291.46,80.22 291.46,80.23 291.24,0L0,0.49M4.22,4.1L74.44,58.62L188.21,146.62L252.82,196.62L286.53,224.08L141.86,255.44L77.25,268.84C59.917,206.42 42.583,143.993 25.25,81.56L10.41,28.45L4.22,4.1Z" style="fill:rgb(2,2,2);fill-rule:nonzero;"/>
    </g>
</svg>
