<?xml version="1.0" encoding="UTF-8" standalone="no"?>
<!DOCTYPE svg PUBLIC "-//W3C//DTD SVG 1.1//EN" "http://www.w3.org/Graphics/SVG/1.1/DTD/svg11.dtd">
<svg width="100%" height="100%" viewBox="0 0 292 293" version="1.1" xmlns="http://www.w3.org/2000/svg" xmlns:xlink="http://www.w3.org/1999/xlink" xml:space="preserve" xmlns:serif="http://www.serif.com/" style="fill-rule:evenodd;clip-rule:evenodd;stroke-linejoin:round;stroke-miterlimit:2;">
    <g id="g1">
        <path id="path8" d="M0,0.49C0.688,4.098 290.027,227.826 291.33,227.35C291.46,80.22 291.46,80.23 291.24,0L-0.12,-2.186M4.22,4.1L286.53,224.08L4.22,4.1Z" style="fill:rgb(167,167,167);fill-rule:nonzero;"/>
    </g>
    <path id="path81" serif:id="path8" d="M0,0.49C5.15,27.49 13.11,53.74 20.49,80.16L55.36,206L74.44,274.48C95.15,269.93 95.13,269.97 104.51,267.95C106.75,274.59 106.73,274.58 113.05,292.6C210.12,257 291.33,227.35 291.33,227.35C291.33,227.35 271.594,212.183 244.57,191.27C233.787,182.924 221.841,173.615 209.529,164.064C197.801,154.966 185.721,145.498 174.011,136.4L138.266,108.609L8.234,7.167L0,0.49M4.22,4.1L23.082,18.742L74.515,58.836C130.873,102.888 187.269,146.848 242.599,189.748L286.912,223.953L141.86,255.44L77.25,268.84C59.917,206.42 42.583,143.993 25.25,81.56L10.41,28.45L4.22,4.1Z" style="fill-rule:nonzero;"/>
</svg>
